<?xml version="1.0" encoding="UTF-8" standalone="no"?>
<!DOCTYPE svg PUBLIC "-//W3C//DTD SVG 1.1//EN"
 "http://www.w3.org/Graphics/SVG/1.1/DTD/svg11.dtd">
<!-- Generated by graphviz version 2.43.0 (0)
 -->
<!-- Title: G Pages: 1 -->
<svg width="2653pt" height="447pt"
 viewBox="0.00 0.00 2653.00 446.59" xmlns="http://www.w3.org/2000/svg" xmlns:xlink="http://www.w3.org/1999/xlink">
<g id="graph0" class="graph" transform="scale(1 1) rotate(0) translate(4 442.59)">
<title>G</title>
<polygon fill="white" stroke="transparent" points="-4,4 -4,-442.59 2649,-442.59 2649,4 -4,4"/>
<g id="clust1" class="cluster">
<title>cluster_module.alb</title>
<polygon fill="none" stroke="black" points="1144,-301.59 1144,-430.59 1583.5,-430.59 1583.5,-301.59 1144,-301.59"/>
<text text-anchor="middle" x="1363.75" y="-415.39" font-family="sans-serif" font-size="14.00">module.alb</text>
</g>
<g id="clust2" class="cluster">
<title>cluster_module.eks</title>
<polygon fill="none" stroke="black" points="1152.5,-120.59 1152.5,-249.59 2179,-249.59 2179,-120.59 1152.5,-120.59"/>
<text text-anchor="middle" x="1665.75" y="-234.39" font-family="sans-serif" font-size="14.00">module.eks</text>
</g>
<g id="clust3" class="cluster">
<title>cluster_module.irsa</title>
<polygon fill="none" stroke="black" points="2199,-120.59 2199,-249.59 2637,-249.59 2637,-120.59 2199,-120.59"/>
<text text-anchor="middle" x="2418" y="-234.39" font-family="sans-serif" font-size="14.00">module.irsa</text>
</g>
<g id="clust4" class="cluster">
<title>cluster_module.nat</title>
<polygon fill="none" stroke="black" points="1196,-37.59 1196,-112.59 1851.5,-112.59 1851.5,-37.59 1196,-37.59"/>
<text text-anchor="middle" x="1523.75" y="-97.39" font-family="sans-serif" font-size="14.00">module.nat</text>
</g>
<g id="clust5" class="cluster">
<title>cluster_module.network_base</title>
<polygon fill="none" stroke="black" points="8,-102.59 8,-393.59 1124,-393.59 1124,-102.59 8,-102.59"/>
<text text-anchor="middle" x="566" y="-378.39" font-family="sans-serif" font-size="14.00">module.network_base</text>
</g>
<!-- aws_route53_record.lab_alias -->
<g id="node1" class="node">
<title>aws_route53_record.lab_alias</title>
<polygon fill="none" stroke="black" points="1608,-293.59 1390,-293.59 1390,-257.59 1608,-257.59 1608,-293.59"/>
<text text-anchor="middle" x="1499" y="-271.89" font-family="sans-serif" font-size="14.00">aws_route53_record.lab_alias</text>
</g>
<!-- module.alb.aws_lb.demo -->
<g id="node2" class="node">
<title>module.alb.aws_lb.demo</title>
<polygon fill="none" stroke="black" points="1306.5,-345.59 1199.5,-345.59 1199.5,-309.59 1306.5,-309.59 1306.5,-345.59"/>
<text text-anchor="middle" x="1253" y="-323.89" font-family="sans-serif" font-size="14.00">aws_lb.demo</text>
</g>
<!-- aws_route53_record.lab_alias&#45;&gt;module.alb.aws_lb.demo -->
<g id="edge1" class="edge">
<title>aws_route53_record.lab_alias&#45;&gt;module.alb.aws_lb.demo</title>
<path fill="none" stroke="black" d="M1408.98,-293.6C1402.56,-294.94 1396.18,-296.28 1390,-297.59 1366,-302.68 1339.65,-308.45 1316.59,-313.56"/>
<polygon fill="black" stroke="black" points="1315.6,-310.19 1306.59,-315.78 1317.11,-317.03 1315.6,-310.19"/>
</g>
<!-- module.network_base.data.aws_route53_zone.lab -->
<g id="node16" class="node">
<title>module.network_base.data.aws_route53_zone.lab</title>
<polygon fill="none" stroke="black" points="1089.5,-232.59 884.5,-232.59 884.5,-196.59 1089.5,-196.59 1089.5,-232.59"/>
<text text-anchor="middle" x="987" y="-210.89" font-family="sans-serif" font-size="14.00">data.aws_route53_zone.lab</text>
</g>
<!-- module.alb.aws_lb.demo&#45;&gt;module.network_base.data.aws_route53_zone.lab -->
<g id="edge2" class="edge">
<title>module.alb.aws_lb.demo&#45;&gt;module.network_base.data.aws_route53_zone.lab</title>
<path fill="none" stroke="black" d="M1225.73,-309.55C1189.91,-285.01 1129.53,-243.88 1124,-241.59 1116.09,-238.3 1107.74,-235.4 1099.24,-232.85"/>
<polygon fill="black" stroke="black" points="1100.17,-229.48 1089.59,-230.12 1098.26,-236.21 1100.17,-229.48"/>
</g>
<!-- module.network_base.aws_route_table_association.private -->
<g id="node20" class="node">
<title>module.network_base.aws_route_table_association.private</title>
<polygon fill="none" stroke="black" points="822,-283.59 557,-283.59 557,-247.59 822,-247.59 822,-283.59"/>
<text text-anchor="middle" x="689.5" y="-261.89" font-family="sans-serif" font-size="14.00">aws_route_table_association.private</text>
</g>
<!-- module.alb.aws_lb.demo&#45;&gt;module.network_base.aws_route_table_association.private -->
<g id="edge3" class="edge">
<title>module.alb.aws_lb.demo&#45;&gt;module.network_base.aws_route_table_association.private</title>
<path fill="none" stroke="black" d="M1199.25,-324.92C1123.51,-320.72 979.65,-311.38 858,-295.59 836.53,-292.8 813.63,-289.15 791.87,-285.36"/>
<polygon fill="black" stroke="black" points="792.42,-281.9 781.97,-283.61 791.21,-288.8 792.42,-281.9"/>
</g>
<!-- module.network_base.aws_route_table_association.public -->
<g id="node21" class="node">
<title>module.network_base.aws_route_table_association.public</title>
<polygon fill="none" stroke="black" points="1116,-286.59 858,-286.59 858,-250.59 1116,-250.59 1116,-286.59"/>
<text text-anchor="middle" x="987" y="-264.89" font-family="sans-serif" font-size="14.00">aws_route_table_association.public</text>
</g>
<!-- module.alb.aws_lb.demo&#45;&gt;module.network_base.aws_route_table_association.public -->
<g id="edge4" class="edge">
<title>module.alb.aws_lb.demo&#45;&gt;module.network_base.aws_route_table_association.public</title>
<path fill="none" stroke="black" d="M1199.21,-315.79C1164.74,-308.08 1118.82,-297.82 1078.61,-288.84"/>
<polygon fill="black" stroke="black" points="1079.31,-285.41 1068.79,-286.64 1077.79,-292.24 1079.31,-285.41"/>
</g>
<!-- module.network_base.aws_security_group.alb -->
<g id="node22" class="node">
<title>module.network_base.aws_security_group.alb</title>
<polygon fill="none" stroke="black" points="512.5,-254.59 333.5,-254.59 333.5,-218.59 512.5,-218.59 512.5,-254.59"/>
<text text-anchor="middle" x="423" y="-232.89" font-family="sans-serif" font-size="14.00">aws_security_group.alb</text>
</g>
<!-- module.alb.aws_lb.demo&#45;&gt;module.network_base.aws_security_group.alb -->
<g id="edge5" class="edge">
<title>module.alb.aws_lb.demo&#45;&gt;module.network_base.aws_security_group.alb</title>
<path fill="none" stroke="black" d="M1199.35,-336.32C1079.83,-353.78 781.03,-383.91 557,-292.59 537.97,-284.83 539.27,-272.98 521,-263.59 517.43,-261.75 513.72,-260.03 509.92,-258.41"/>
<polygon fill="black" stroke="black" points="510.92,-255.04 500.34,-254.61 508.34,-261.55 510.92,-255.04"/>
</g>
<!-- module.alb.aws_lb_listener.http -->
<g id="node3" class="node">
<title>module.alb.aws_lb_listener.http</title>
<polygon fill="none" stroke="black" points="1575.5,-373.59 1422.5,-373.59 1422.5,-337.59 1575.5,-337.59 1575.5,-373.59"/>
<text text-anchor="middle" x="1499" y="-351.89" font-family="sans-serif" font-size="14.00">aws_lb_listener.http</text>
</g>
<!-- module.alb.aws_lb_listener.http&#45;&gt;module.alb.aws_lb.demo -->
<g id="edge6" class="edge">
<title>module.alb.aws_lb_listener.http&#45;&gt;module.alb.aws_lb.demo</title>
<path fill="none" stroke="black" d="M1422.47,-346.92C1388.62,-343.03 1349.16,-338.51 1316.95,-334.81"/>
<polygon fill="black" stroke="black" points="1317.09,-331.3 1306.76,-333.64 1316.29,-338.26 1317.09,-331.3"/>
</g>
<!-- module.alb.aws_lb_target_group.demo -->
<g id="node4" class="node">
<title>module.alb.aws_lb_target_group.demo</title>
<polygon fill="none" stroke="black" points="1354,-399.59 1152,-399.59 1152,-363.59 1354,-363.59 1354,-399.59"/>
<text text-anchor="middle" x="1253" y="-377.89" font-family="sans-serif" font-size="14.00">aws_lb_target_group.demo</text>
</g>
<!-- module.alb.aws_lb_listener.http&#45;&gt;module.alb.aws_lb_target_group.demo -->
<g id="edge7" class="edge">
<title>module.alb.aws_lb_listener.http&#45;&gt;module.alb.aws_lb_target_group.demo</title>
<path fill="none" stroke="black" d="M1422.47,-363.63C1404.11,-365.59 1384.11,-367.72 1364.5,-369.81"/>
<polygon fill="black" stroke="black" points="1363.87,-366.36 1354.3,-370.9 1364.61,-373.32 1363.87,-366.36"/>
</g>
<!-- module.alb.aws_lb_target_group.demo&#45;&gt;module.network_base.data.aws_route53_zone.lab -->
<g id="edge8" class="edge">
<title>module.alb.aws_lb_target_group.demo&#45;&gt;module.network_base.data.aws_route53_zone.lab</title>
<path fill="none" stroke="black" d="M1153.99,-363.28C1150.39,-360.72 1147.03,-357.84 1144,-354.59 1109.22,-317.29 1159.69,-278.02 1124,-241.59 1116.86,-234.3 1108.36,-228.68 1099.14,-224.39"/>
<polygon fill="black" stroke="black" points="1100.29,-221.08 1089.71,-220.52 1097.64,-227.55 1100.29,-221.08"/>
</g>
<!-- module.alb.aws_lb_target_group.demo&#45;&gt;module.network_base.aws_route_table_association.private -->
<g id="edge9" class="edge">
<title>module.alb.aws_lb_target_group.demo&#45;&gt;module.network_base.aws_route_table_association.private</title>
<path fill="none" stroke="black" d="M1151.9,-371.15C1071.72,-361.64 956.7,-345.41 858,-321.59 820.32,-312.49 779.01,-298.72 746.84,-287.11"/>
<polygon fill="black" stroke="black" points="747.76,-283.72 737.16,-283.59 745.36,-290.3 747.76,-283.72"/>
</g>
<!-- module.alb.aws_lb_target_group.demo&#45;&gt;module.network_base.aws_route_table_association.public -->
<g id="edge10" class="edge">
<title>module.alb.aws_lb_target_group.demo&#45;&gt;module.network_base.aws_route_table_association.public</title>
<path fill="none" stroke="black" d="M1170.2,-363.54C1161.25,-360.86 1152.36,-357.87 1144,-354.59 1101.04,-337.7 1055.14,-311.27 1024.34,-292.16"/>
<polygon fill="black" stroke="black" points="1026,-289.08 1015.67,-286.74 1022.29,-295.01 1026,-289.08"/>
</g>
<!-- module.alb.aws_lb_target_group.demo&#45;&gt;module.network_base.aws_security_group.alb -->
<g id="edge11" class="edge">
<title>module.alb.aws_lb_target_group.demo&#45;&gt;module.network_base.aws_security_group.alb</title>
<path fill="none" stroke="black" d="M1173.71,-399.59C1036.07,-426.57 747.32,-461.71 557,-334.59 527.58,-314.93 548.37,-286.01 521,-263.59 519.61,-262.44 518.17,-261.35 516.69,-260.3"/>
<polygon fill="black" stroke="black" points="518.17,-257.1 507.83,-254.79 514.47,-263.04 518.17,-257.1"/>
</g>
<!-- module.eks.data.tls_certificate.cluster -->
<g id="node5" class="node">
<title>module.eks.data.tls_certificate.cluster</title>
<polygon fill="none" stroke="black" points="1844,-164.59 1648,-164.59 1648,-128.59 1844,-128.59 1844,-164.59"/>
<text text-anchor="middle" x="1746" y="-142.89" font-family="sans-serif" font-size="14.00">data.tls_certificate.cluster</text>
</g>
<!-- module.eks.aws_eks_cluster.this -->
<g id="node6" class="node">
<title>module.eks.aws_eks_cluster.this</title>
<polygon fill="none" stroke="black" points="1577.5,-202.59 1420.5,-202.59 1420.5,-166.59 1577.5,-166.59 1577.5,-202.59"/>
<text text-anchor="middle" x="1499" y="-180.89" font-family="sans-serif" font-size="14.00">aws_eks_cluster.this</text>
</g>
<!-- module.eks.data.tls_certificate.cluster&#45;&gt;module.eks.aws_eks_cluster.this -->
<g id="edge12" class="edge">
<title>module.eks.data.tls_certificate.cluster&#45;&gt;module.eks.aws_eks_cluster.this</title>
<path fill="none" stroke="black" d="M1647.82,-161.66C1628.02,-164.73 1607.3,-167.94 1587.86,-170.96"/>
<polygon fill="black" stroke="black" points="1587.16,-167.53 1577.81,-172.52 1588.23,-174.44 1587.16,-167.53"/>
</g>
<!-- module.eks.aws_eks_node_group.ng -->
<g id="node7" class="node">
<title>module.eks.aws_eks_node_group.ng</title>
<polygon fill="none" stroke="black" points="1345.5,-202.59 1160.5,-202.59 1160.5,-166.59 1345.5,-166.59 1345.5,-202.59"/>
<text text-anchor="middle" x="1253" y="-180.89" font-family="sans-serif" font-size="14.00">aws_eks_node_group.ng</text>
</g>
<!-- module.eks.aws_eks_cluster.this&#45;&gt;module.eks.aws_eks_node_group.ng -->
<g id="edge13" class="edge">
<title>module.eks.aws_eks_cluster.this&#45;&gt;module.eks.aws_eks_node_group.ng</title>
<path fill="none" stroke="black" d="M1420.46,-184.59C1399.98,-184.59 1377.57,-184.59 1356.01,-184.59"/>
<polygon fill="black" stroke="black" points="1355.84,-181.09 1345.84,-184.59 1355.84,-188.09 1355.84,-181.09"/>
</g>
<!-- module.eks.aws_eks_node_group.ng&#45;&gt;module.network_base.data.aws_route53_zone.lab -->
<g id="edge14" class="edge">
<title>module.eks.aws_eks_node_group.ng&#45;&gt;module.network_base.data.aws_route53_zone.lab</title>
<path fill="none" stroke="black" d="M1160.41,-194.99C1140.91,-197.21 1120.12,-199.57 1099.97,-201.86"/>
<polygon fill="black" stroke="black" points="1099.35,-198.41 1089.81,-203.02 1100.15,-205.36 1099.35,-198.41"/>
</g>
<!-- module.eks.aws_eks_node_group.ng&#45;&gt;module.network_base.aws_route_table_association.private -->
<g id="edge15" class="edge">
<title>module.eks.aws_eks_node_group.ng&#45;&gt;module.network_base.aws_route_table_association.private</title>
<path fill="none" stroke="black" d="M1160.31,-171.17C1079.09,-162.57 958.18,-157.9 858,-187.59 839.8,-192.98 838.82,-201.78 822,-210.59 798.59,-222.84 771.83,-234.45 748.58,-243.81"/>
<polygon fill="black" stroke="black" points="747.19,-240.59 739.2,-247.54 749.78,-247.1 747.19,-240.59"/>
</g>
<!-- module.eks.aws_eks_node_group.ng&#45;&gt;module.network_base.aws_route_table_association.public -->
<g id="edge16" class="edge">
<title>module.eks.aws_eks_node_group.ng&#45;&gt;module.network_base.aws_route_table_association.public</title>
<path fill="none" stroke="black" d="M1217.24,-202.61C1191.95,-215.08 1156.58,-231.24 1124,-241.59 1116.66,-243.92 1109.03,-246.09 1101.3,-248.1"/>
<polygon fill="black" stroke="black" points="1100.31,-244.74 1091.46,-250.57 1102.02,-251.53 1100.31,-244.74"/>
</g>
<!-- module.eks.aws_eks_node_group.ng&#45;&gt;module.network_base.aws_security_group.alb -->
<g id="edge17" class="edge">
<title>module.eks.aws_eks_node_group.ng&#45;&gt;module.network_base.aws_security_group.alb</title>
<path fill="none" stroke="black" d="M1202.38,-166.58C1082.95,-126.48 773.36,-41.99 557,-156.59 531.84,-169.91 544.13,-192.98 521,-209.59 519.1,-210.95 517.13,-212.25 515.1,-213.48"/>
<polygon fill="black" stroke="black" points="513.03,-210.63 505.91,-218.48 516.37,-216.78 513.03,-210.63"/>
</g>
<!-- module.eks.aws_iam_openid_connect_provider.oidc -->
<g id="node8" class="node">
<title>module.eks.aws_iam_openid_connect_provider.oidc</title>
<polygon fill="none" stroke="black" points="2171,-191.59 1884,-191.59 1884,-155.59 2171,-155.59 2171,-191.59"/>
<text text-anchor="middle" x="2027.5" y="-169.89" font-family="sans-serif" font-size="14.00">aws_iam_openid_connect_provider.oidc</text>
</g>
<!-- module.eks.aws_iam_openid_connect_provider.oidc&#45;&gt;module.eks.data.tls_certificate.cluster -->
<g id="edge18" class="edge">
<title>module.eks.aws_iam_openid_connect_provider.oidc&#45;&gt;module.eks.data.tls_certificate.cluster</title>
<path fill="none" stroke="black" d="M1883.88,-159.81C1873.9,-158.84 1863.93,-157.88 1854.18,-156.94"/>
<polygon fill="black" stroke="black" points="1854.41,-153.45 1844.12,-155.97 1853.73,-160.41 1854.41,-153.45"/>
</g>
<!-- module.eks.time_sleep.wait_for_cluster -->
<g id="node9" class="node">
<title>module.eks.time_sleep.wait_for_cluster</title>
<polygon fill="none" stroke="black" points="1848,-218.59 1644,-218.59 1644,-182.59 1848,-182.59 1848,-218.59"/>
<text text-anchor="middle" x="1746" y="-196.89" font-family="sans-serif" font-size="14.00">time_sleep.wait_for_cluster</text>
</g>
<!-- module.eks.aws_iam_openid_connect_provider.oidc&#45;&gt;module.eks.time_sleep.wait_for_cluster -->
<g id="edge19" class="edge">
<title>module.eks.aws_iam_openid_connect_provider.oidc&#45;&gt;module.eks.time_sleep.wait_for_cluster</title>
<path fill="none" stroke="black" d="M1883.88,-187.36C1875.37,-188.19 1866.87,-189.01 1858.51,-189.81"/>
<polygon fill="black" stroke="black" points="1858,-186.35 1848.39,-190.79 1858.68,-193.31 1858,-186.35"/>
</g>
<!-- module.eks.time_sleep.wait_for_cluster&#45;&gt;module.eks.aws_eks_cluster.this -->
<g id="edge20" class="edge">
<title>module.eks.time_sleep.wait_for_cluster&#45;&gt;module.eks.aws_eks_cluster.this</title>
<path fill="none" stroke="black" d="M1643.93,-193.99C1625.25,-192.77 1605.88,-191.5 1587.63,-190.31"/>
<polygon fill="black" stroke="black" points="1587.83,-186.81 1577.62,-189.66 1587.38,-193.8 1587.83,-186.81"/>
</g>
<!-- module.irsa.aws_iam_role.eks_cluster_autoscaler -->
<g id="node10" class="node">
<title>module.irsa.aws_iam_role.eks_cluster_autoscaler</title>
<polygon fill="none" stroke="black" points="2552.5,-218.59 2283.5,-218.59 2283.5,-182.59 2552.5,-182.59 2552.5,-218.59"/>
<text text-anchor="middle" x="2418" y="-196.89" font-family="sans-serif" font-size="14.00">aws_iam_role.eks_cluster_autoscaler</text>
</g>
<!-- module.irsa.aws_iam_role.eks_cluster_autoscaler&#45;&gt;module.eks.aws_iam_openid_connect_provider.oidc -->
<g id="edge21" class="edge">
<title>module.irsa.aws_iam_role.eks_cluster_autoscaler&#45;&gt;module.eks.aws_iam_openid_connect_provider.oidc</title>
<path fill="none" stroke="black" d="M2283.3,-191.29C2250.48,-189.01 2215.1,-186.55 2181.45,-184.22"/>
<polygon fill="black" stroke="black" points="2181.28,-180.7 2171.06,-183.49 2180.8,-187.68 2181.28,-180.7"/>
</g>
<!-- module.irsa.aws_iam_role_policy_attachment.cluster_autoscaler_attach -->
<g id="node11" class="node">
<title>module.irsa.aws_iam_role_policy_attachment.cluster_autoscaler_attach</title>
<polygon fill="none" stroke="black" points="2629,-164.59 2207,-164.59 2207,-128.59 2629,-128.59 2629,-164.59"/>
<text text-anchor="middle" x="2418" y="-142.89" font-family="sans-serif" font-size="14.00">aws_iam_role_policy_attachment.cluster_autoscaler_attach</text>
</g>
<!-- module.irsa.aws_iam_role_policy_attachment.cluster_autoscaler_attach&#45;&gt;module.eks.aws_iam_openid_connect_provider.oidc -->
<g id="edge22" class="edge">
<title>module.irsa.aws_iam_role_policy_attachment.cluster_autoscaler_attach&#45;&gt;module.eks.aws_iam_openid_connect_provider.oidc</title>
<path fill="none" stroke="black" d="M2206.83,-161.19C2198.25,-161.79 2189.71,-162.38 2181.28,-162.97"/>
<polygon fill="black" stroke="black" points="2180.8,-159.49 2171.06,-163.68 2181.28,-166.48 2180.8,-159.49"/>
</g>
<!-- module.nat.aws_eip.nat -->
<g id="node12" class="node">
<title>module.nat.aws_eip.nat</title>
<polygon fill="none" stroke="black" points="1302,-81.59 1204,-81.59 1204,-45.59 1302,-45.59 1302,-81.59"/>
<text text-anchor="middle" x="1253" y="-59.89" font-family="sans-serif" font-size="14.00">aws_eip.nat</text>
</g>
<!-- module.nat.aws_eip.nat&#45;&gt;module.network_base.data.aws_route53_zone.lab -->
<g id="edge23" class="edge">
<title>module.nat.aws_eip.nat&#45;&gt;module.network_base.data.aws_route53_zone.lab</title>
<path fill="none" stroke="black" d="M1212.75,-81.63C1192.04,-91.46 1166.35,-104.13 1144,-116.59 1101.48,-140.29 1054.38,-170.44 1023.18,-191"/>
<polygon fill="black" stroke="black" points="1021.22,-188.1 1014.81,-196.53 1025.09,-193.94 1021.22,-188.1"/>
</g>
<!-- module.nat.aws_eip.nat&#45;&gt;module.network_base.aws_route_table_association.private -->
<g id="edge24" class="edge">
<title>module.nat.aws_eip.nat&#45;&gt;module.network_base.aws_route_table_association.private</title>
<path fill="none" stroke="black" d="M1203.85,-65.21C1125.12,-69.98 966.76,-88.69 858,-161.59 835.55,-176.63 843.24,-193.88 822,-210.59 804.29,-224.52 782.54,-235.5 761.87,-243.86"/>
<polygon fill="black" stroke="black" points="760.52,-240.64 752.47,-247.52 763.06,-247.16 760.52,-240.64"/>
</g>
<!-- module.nat.aws_eip.nat&#45;&gt;module.network_base.aws_route_table_association.public -->
<g id="edge25" class="edge">
<title>module.nat.aws_eip.nat&#45;&gt;module.network_base.aws_route_table_association.public</title>
<path fill="none" stroke="black" d="M1203.9,-76.11C1182.33,-84.18 1158.53,-96.94 1144,-116.59 1110.55,-161.83 1163.03,-201.07 1124,-241.59 1123.21,-242.41 1122.4,-243.21 1121.57,-243.99"/>
<polygon fill="black" stroke="black" points="1119.19,-241.42 1113.7,-250.48 1123.65,-246.82 1119.19,-241.42"/>
</g>
<!-- module.nat.aws_eip.nat&#45;&gt;module.network_base.aws_security_group.alb -->
<g id="edge26" class="edge">
<title>module.nat.aws_eip.nat&#45;&gt;module.network_base.aws_security_group.alb</title>
<path fill="none" stroke="black" d="M1203.7,-48.58C1080.46,-13.55 750.47,59.44 557,-95.59 515.54,-128.81 559.21,-172.67 521,-209.59 519.9,-210.65 518.76,-211.67 517.59,-212.65"/>
<polygon fill="black" stroke="black" points="515.45,-209.88 509.4,-218.58 519.55,-215.55 515.45,-209.88"/>
</g>
<!-- module.nat.aws_nat_gateway.this -->
<g id="node13" class="node">
<title>module.nat.aws_nat_gateway.this</title>
<polygon fill="none" stroke="black" points="1582,-81.59 1416,-81.59 1416,-45.59 1582,-45.59 1582,-81.59"/>
<text text-anchor="middle" x="1499" y="-59.89" font-family="sans-serif" font-size="14.00">aws_nat_gateway.this</text>
</g>
<!-- module.nat.aws_nat_gateway.this&#45;&gt;module.nat.aws_eip.nat -->
<g id="edge27" class="edge">
<title>module.nat.aws_nat_gateway.this&#45;&gt;module.nat.aws_eip.nat</title>
<path fill="none" stroke="black" d="M1415.73,-63.59C1381.8,-63.59 1343.26,-63.59 1312.32,-63.59"/>
<polygon fill="black" stroke="black" points="1312.13,-60.09 1302.13,-63.59 1312.13,-67.09 1312.13,-60.09"/>
</g>
<!-- module.nat.aws_route.private_default -->
<g id="node14" class="node">
<title>module.nat.aws_route.private_default</title>
<polygon fill="none" stroke="black" points="1843.5,-81.59 1648.5,-81.59 1648.5,-45.59 1843.5,-45.59 1843.5,-81.59"/>
<text text-anchor="middle" x="1746" y="-59.89" font-family="sans-serif" font-size="14.00">aws_route.private_default</text>
</g>
<!-- module.nat.aws_route.private_default&#45;&gt;module.nat.aws_nat_gateway.this -->
<g id="edge28" class="edge">
<title>module.nat.aws_route.private_default&#45;&gt;module.nat.aws_nat_gateway.this</title>
<path fill="none" stroke="black" d="M1648.17,-63.59C1629.77,-63.59 1610.57,-63.59 1592.32,-63.59"/>
<polygon fill="black" stroke="black" points="1592.29,-60.09 1582.29,-63.59 1592.29,-67.09 1592.29,-60.09"/>
</g>
<!-- module.network_base.data.aws_availability_zones.available -->
<g id="node15" class="node">
<title>module.network_base.data.aws_availability_zones.available</title>
<polygon fill="none" stroke="black" points="289,-335.59 16,-335.59 16,-299.59 289,-299.59 289,-335.59"/>
<text text-anchor="middle" x="152.5" y="-313.89" font-family="sans-serif" font-size="14.00">data.aws_availability_zones.available</text>
</g>
<!-- module.network_base.aws_internet_gateway.igw -->
<g id="node17" class="node">
<title>module.network_base.aws_internet_gateway.igw</title>
<polygon fill="none" stroke="black" points="521,-146.59 325,-146.59 325,-110.59 521,-110.59 521,-146.59"/>
<text text-anchor="middle" x="423" y="-124.89" font-family="sans-serif" font-size="14.00">aws_internet_gateway.igw</text>
</g>
<!-- module.network_base.aws_vpc.this -->
<g id="node25" class="node">
<title>module.network_base.aws_vpc.this</title>
<polygon fill="none" stroke="black" points="205,-254.59 100,-254.59 100,-218.59 205,-218.59 205,-254.59"/>
<text text-anchor="middle" x="152.5" y="-232.89" font-family="sans-serif" font-size="14.00">aws_vpc.this</text>
</g>
<!-- module.network_base.aws_internet_gateway.igw&#45;&gt;module.network_base.aws_vpc.this -->
<g id="edge29" class="edge">
<title>module.network_base.aws_internet_gateway.igw&#45;&gt;module.network_base.aws_vpc.this</title>
<path fill="none" stroke="black" d="M351.61,-146.66C342.58,-149.42 333.52,-152.42 325,-155.59 280.01,-172.33 230.64,-196.28 196.47,-213.79"/>
<polygon fill="black" stroke="black" points="194.53,-210.85 187.25,-218.55 197.74,-217.07 194.53,-210.85"/>
</g>
<!-- module.network_base.aws_route_table.private -->
<g id="node18" class="node">
<title>module.network_base.aws_route_table.private</title>
<polygon fill="none" stroke="black" points="513.5,-200.59 332.5,-200.59 332.5,-164.59 513.5,-164.59 513.5,-200.59"/>
<text text-anchor="middle" x="423" y="-178.89" font-family="sans-serif" font-size="14.00">aws_route_table.private</text>
</g>
<!-- module.network_base.aws_route_table.private&#45;&gt;module.network_base.aws_vpc.this -->
<g id="edge30" class="edge">
<title>module.network_base.aws_route_table.private&#45;&gt;module.network_base.aws_vpc.this</title>
<path fill="none" stroke="black" d="M332.22,-200.64C293.79,-208.37 249.87,-217.2 215.19,-224.18"/>
<polygon fill="black" stroke="black" points="214.31,-220.79 205.2,-226.19 215.69,-227.65 214.31,-220.79"/>
</g>
<!-- module.network_base.aws_route_table.public -->
<g id="node19" class="node">
<title>module.network_base.aws_route_table.public</title>
<polygon fill="none" stroke="black" points="776.5,-201.59 602.5,-201.59 602.5,-165.59 776.5,-165.59 776.5,-201.59"/>
<text text-anchor="middle" x="689.5" y="-179.89" font-family="sans-serif" font-size="14.00">aws_route_table.public</text>
</g>
<!-- module.network_base.aws_route_table.public&#45;&gt;module.network_base.aws_internet_gateway.igw -->
<g id="edge31" class="edge">
<title>module.network_base.aws_route_table.public&#45;&gt;module.network_base.aws_internet_gateway.igw</title>
<path fill="none" stroke="black" d="M602.26,-165.65C576.19,-160.23 547.4,-154.25 520.7,-148.69"/>
<polygon fill="black" stroke="black" points="521.08,-145.2 510.58,-146.59 519.65,-152.05 521.08,-145.2"/>
</g>
<!-- module.network_base.aws_route_table_association.private&#45;&gt;module.network_base.aws_route_table.private -->
<g id="edge32" class="edge">
<title>module.network_base.aws_route_table_association.private&#45;&gt;module.network_base.aws_route_table.private</title>
<path fill="none" stroke="black" d="M636.66,-247.49C603.68,-236.17 559.99,-221.52 521,-209.59 514.43,-207.58 507.59,-205.54 500.72,-203.55"/>
<polygon fill="black" stroke="black" points="501.24,-200.06 490.66,-200.66 499.3,-206.78 501.24,-200.06"/>
</g>
<!-- module.network_base.aws_subnet.private -->
<g id="node23" class="node">
<title>module.network_base.aws_subnet.private</title>
<polygon fill="none" stroke="black" points="499,-308.59 347,-308.59 347,-272.59 499,-272.59 499,-308.59"/>
<text text-anchor="middle" x="423" y="-286.89" font-family="sans-serif" font-size="14.00">aws_subnet.private</text>
</g>
<!-- module.network_base.aws_route_table_association.private&#45;&gt;module.network_base.aws_subnet.private -->
<g id="edge33" class="edge">
<title>module.network_base.aws_route_table_association.private&#45;&gt;module.network_base.aws_subnet.private</title>
<path fill="none" stroke="black" d="M556.64,-278.05C540.66,-279.56 524.67,-281.07 509.6,-282.49"/>
<polygon fill="black" stroke="black" points="508.96,-279.04 499.34,-283.47 509.62,-286.01 508.96,-279.04"/>
</g>
<!-- module.network_base.aws_route_table_association.public&#45;&gt;module.network_base.aws_route_table.public -->
<g id="edge34" class="edge">
<title>module.network_base.aws_route_table_association.public&#45;&gt;module.network_base.aws_route_table.public</title>
<path fill="none" stroke="black" d="M893.72,-250.57C881.65,-247.79 869.49,-244.77 858,-241.59 820.65,-231.22 779.5,-217.02 747.33,-205.26"/>
<polygon fill="black" stroke="black" points="748.25,-201.86 737.65,-201.69 745.83,-208.43 748.25,-201.86"/>
</g>
<!-- module.network_base.aws_subnet.public -->
<g id="node24" class="node">
<title>module.network_base.aws_subnet.public</title>
<polygon fill="none" stroke="black" points="495.5,-362.59 350.5,-362.59 350.5,-326.59 495.5,-326.59 495.5,-362.59"/>
<text text-anchor="middle" x="423" y="-340.89" font-family="sans-serif" font-size="14.00">aws_subnet.public</text>
</g>
<!-- module.network_base.aws_route_table_association.public&#45;&gt;module.network_base.aws_subnet.public -->
<g id="edge35" class="edge">
<title>module.network_base.aws_route_table_association.public&#45;&gt;module.network_base.aws_subnet.public</title>
<path fill="none" stroke="black" d="M864.23,-286.62C850,-288.66 835.68,-290.69 822,-292.59 712.61,-307.73 586.14,-324.06 505.65,-334.29"/>
<polygon fill="black" stroke="black" points="505.06,-330.84 495.58,-335.57 505.94,-337.78 505.06,-330.84"/>
</g>
<!-- module.network_base.aws_security_group.alb&#45;&gt;module.network_base.aws_vpc.this -->
<g id="edge36" class="edge">
<title>module.network_base.aws_security_group.alb&#45;&gt;module.network_base.aws_vpc.this</title>
<path fill="none" stroke="black" d="M333.34,-236.59C294.69,-236.59 250.32,-236.59 215.32,-236.59"/>
<polygon fill="black" stroke="black" points="215.25,-233.09 205.25,-236.59 215.25,-240.09 215.25,-233.09"/>
</g>
<!-- module.network_base.aws_subnet.private&#45;&gt;module.network_base.data.aws_availability_zones.available -->
<g id="edge37" class="edge">
<title>module.network_base.aws_subnet.private&#45;&gt;module.network_base.data.aws_availability_zones.available</title>
<path fill="none" stroke="black" d="M346.85,-298.14C331.88,-299.65 315.69,-301.28 299.27,-302.93"/>
<polygon fill="black" stroke="black" points="298.62,-299.48 289.02,-303.96 299.32,-306.44 298.62,-299.48"/>
</g>
<!-- module.network_base.aws_subnet.private&#45;&gt;module.network_base.aws_vpc.this -->
<g id="edge38" class="edge">
<title>module.network_base.aws_subnet.private&#45;&gt;module.network_base.aws_vpc.this</title>
<path fill="none" stroke="black" d="M346.85,-275.47C305.32,-267.12 254.36,-256.87 215.19,-248.99"/>
<polygon fill="black" stroke="black" points="215.73,-245.53 205.24,-246.99 214.35,-252.39 215.73,-245.53"/>
</g>
<!-- module.network_base.aws_subnet.public&#45;&gt;module.network_base.data.aws_availability_zones.available -->
<g id="edge39" class="edge">
<title>module.network_base.aws_subnet.public&#45;&gt;module.network_base.data.aws_availability_zones.available</title>
<path fill="none" stroke="black" d="M350.4,-337.39C334.56,-335.79 317.21,-334.05 299.59,-332.28"/>
<polygon fill="black" stroke="black" points="299.5,-328.75 289.2,-331.23 298.8,-335.71 299.5,-328.75"/>
</g>
<!-- module.network_base.aws_subnet.public&#45;&gt;module.network_base.aws_vpc.this -->
<g id="edge40" class="edge">
<title>module.network_base.aws_subnet.public&#45;&gt;module.network_base.aws_vpc.this</title>
<path fill="none" stroke="black" d="M350.4,-327.95C341.66,-324.96 333,-321.52 325,-317.59 307.06,-308.75 306.44,-300.37 289,-290.59 265.71,-277.52 238.61,-266.05 214.79,-257.08"/>
<polygon fill="black" stroke="black" points="215.75,-253.71 205.16,-253.52 213.32,-260.27 215.75,-253.71"/>
</g>
</g>
</svg>
