<?xml version="1.0" encoding="UTF-8" standalone="no"?>
<!DOCTYPE svg PUBLIC "-//W3C//DTD SVG 1.1//EN"
 "http://www.w3.org/Graphics/SVG/1.1/DTD/svg11.dtd">
<!-- Generated by graphviz version 2.43.0 (0)
 -->
<!-- Title: G Pages: 1 -->
<svg width="2826pt" height="643pt"
 viewBox="0.00 0.00 2826.00 643.00" xmlns="http://www.w3.org/2000/svg" xmlns:xlink="http://www.w3.org/1999/xlink">
<g id="graph0" class="graph" transform="scale(1 1) rotate(0) translate(4 639)">
<title>G</title>
<polygon fill="white" stroke="transparent" points="-4,4 -4,-639 2822,-639 2822,4 -4,4"/>
<g id="clust1" class="cluster">
<title>cluster_module.alb</title>
<polygon fill="none" stroke="black" points="1144,-498 1144,-627 1572.5,-627 1572.5,-498 1144,-498"/>
<text text-anchor="middle" x="1358.25" y="-611.8" font-family="sans-serif" font-size="14.00">module.alb</text>
</g>
<g id="clust2" class="cluster">
<title>cluster_module.autoscaler</title>
<polygon fill="none" stroke="black" points="2657,-157 2657,-232 2810,-232 2810,-157 2657,-157"/>
<text text-anchor="middle" x="2733.5" y="-216.8" font-family="sans-serif" font-size="14.00">module.autoscaler</text>
</g>
<g id="clust3" class="cluster">
<title>cluster_module.eks</title>
<polygon fill="none" stroke="black" points="1166.5,-91 1166.5,-490 2179,-490 2179,-91 1166.5,-91"/>
<text text-anchor="middle" x="1672.75" y="-474.8" font-family="sans-serif" font-size="14.00">module.eks</text>
</g>
<g id="clust4" class="cluster">
<title>cluster_module.irsa</title>
<polygon fill="none" stroke="black" points="2199,-130 2199,-259 2637,-259 2637,-130 2199,-130"/>
<text text-anchor="middle" x="2418" y="-243.8" font-family="sans-serif" font-size="14.00">module.irsa</text>
</g>
<g id="clust5" class="cluster">
<title>cluster_module.nat</title>
<polygon fill="none" stroke="black" points="1196,-8 1196,-83 1891.5,-83 1891.5,-8 1196,-8"/>
<text text-anchor="middle" x="1543.75" y="-67.8" font-family="sans-serif" font-size="14.00">module.nat</text>
</g>
<g id="clust6" class="cluster">
<title>cluster_module.network_base</title>
<polygon fill="none" stroke="black" points="8,-294 8,-585 1124,-585 1124,-294 8,-294"/>
<text text-anchor="middle" x="566" y="-569.8" font-family="sans-serif" font-size="14.00">module.network_base</text>
</g>
<!-- aws_route53_record.lab_alias -->
<g id="node1" class="node">
<title>aws_route53_record.lab_alias</title>
<polygon fill="none" stroke="black" points="1895,-569 1677,-569 1677,-533 1895,-533 1895,-569"/>
<text text-anchor="middle" x="1786" y="-547.3" font-family="sans-serif" font-size="14.00">aws_route53_record.lab_alias</text>
</g>
<!-- module.alb.aws_lb_listener.http -->
<g id="node3" class="node">
<title>module.alb.aws_lb_listener.http</title>
<polygon fill="none" stroke="black" points="1564.5,-569 1411.5,-569 1411.5,-533 1564.5,-533 1564.5,-569"/>
<text text-anchor="middle" x="1488" y="-547.3" font-family="sans-serif" font-size="14.00">aws_lb_listener.http</text>
</g>
<!-- aws_route53_record.lab_alias&#45;&gt;module.alb.aws_lb_listener.http -->
<g id="edge1" class="edge">
<title>aws_route53_record.lab_alias&#45;&gt;module.alb.aws_lb_listener.http</title>
<path fill="none" stroke="black" d="M1676.88,-551C1643.35,-551 1606.87,-551 1575.05,-551"/>
<polygon fill="black" stroke="black" points="1574.89,-547.5 1564.89,-551 1574.89,-554.5 1574.89,-547.5"/>
</g>
<!-- module.alb.aws_lb.demo -->
<g id="node2" class="node">
<title>module.alb.aws_lb.demo</title>
<polygon fill="none" stroke="black" points="1306.5,-596 1199.5,-596 1199.5,-560 1306.5,-560 1306.5,-596"/>
<text text-anchor="middle" x="1253" y="-574.3" font-family="sans-serif" font-size="14.00">aws_lb.demo</text>
</g>
<!-- module.network_base.data.aws_route53_zone.lab -->
<g id="node23" class="node">
<title>module.network_base.data.aws_route53_zone.lab</title>
<polygon fill="none" stroke="black" points="1089.5,-402 884.5,-402 884.5,-366 1089.5,-366 1089.5,-402"/>
<text text-anchor="middle" x="987" y="-380.3" font-family="sans-serif" font-size="14.00">data.aws_route53_zone.lab</text>
</g>
<!-- module.alb.aws_lb.demo&#45;&gt;module.network_base.data.aws_route53_zone.lab -->
<g id="edge2" class="edge">
<title>module.alb.aws_lb.demo&#45;&gt;module.network_base.data.aws_route53_zone.lab</title>
<path fill="none" stroke="black" d="M1199.46,-576.9C1179.39,-573.73 1157.98,-566.5 1144,-551 1101.9,-504.32 1167.23,-456.63 1124,-411 1116.92,-403.53 1108.42,-397.8 1099.16,-393.44"/>
<polygon fill="black" stroke="black" points="1100.25,-390.11 1089.67,-389.52 1097.58,-396.58 1100.25,-390.11"/>
</g>
<!-- module.network_base.aws_route_table_association.private -->
<g id="node27" class="node">
<title>module.network_base.aws_route_table_association.private</title>
<polygon fill="none" stroke="black" points="822,-446 557,-446 557,-410 822,-410 822,-446"/>
<text text-anchor="middle" x="689.5" y="-424.3" font-family="sans-serif" font-size="14.00">aws_route_table_association.private</text>
</g>
<!-- module.alb.aws_lb.demo&#45;&gt;module.network_base.aws_route_table_association.private -->
<g id="edge3" class="edge">
<title>module.alb.aws_lb.demo&#45;&gt;module.network_base.aws_route_table_association.private</title>
<path fill="none" stroke="black" d="M1199.21,-570.9C1122.81,-559.85 977.49,-535.88 858,-499 815.84,-485.98 769.81,-466.03 736.69,-450.59"/>
<polygon fill="black" stroke="black" points="737.81,-447.25 727.27,-446.15 734.83,-453.58 737.81,-447.25"/>
</g>
<!-- module.network_base.aws_route_table_association.public -->
<g id="node28" class="node">
<title>module.network_base.aws_route_table_association.public</title>
<polygon fill="none" stroke="black" points="1116,-456 858,-456 858,-420 1116,-420 1116,-456"/>
<text text-anchor="middle" x="987" y="-434.3" font-family="sans-serif" font-size="14.00">aws_route_table_association.public</text>
</g>
<!-- module.alb.aws_lb.demo&#45;&gt;module.network_base.aws_route_table_association.public -->
<g id="edge4" class="edge">
<title>module.alb.aws_lb.demo&#45;&gt;module.network_base.aws_route_table_association.public</title>
<path fill="none" stroke="black" d="M1199.26,-569.04C1181.22,-564.89 1161.26,-559.04 1144,-551 1094.68,-528.02 1045.04,-488.61 1015.4,-462.93"/>
<polygon fill="black" stroke="black" points="1017.42,-460.04 1007.59,-456.08 1012.8,-465.3 1017.42,-460.04"/>
</g>
<!-- module.network_base.aws_security_group.alb -->
<g id="node29" class="node">
<title>module.network_base.aws_security_group.alb</title>
<polygon fill="none" stroke="black" points="512.5,-446 333.5,-446 333.5,-410 512.5,-410 512.5,-446"/>
<text text-anchor="middle" x="423" y="-424.3" font-family="sans-serif" font-size="14.00">aws_security_group.alb</text>
</g>
<!-- module.alb.aws_lb.demo&#45;&gt;module.network_base.aws_security_group.alb -->
<g id="edge5" class="edge">
<title>module.alb.aws_lb.demo&#45;&gt;module.network_base.aws_security_group.alb</title>
<path fill="none" stroke="black" d="M1199.44,-582.38C1078.86,-590.12 775.89,-596.37 557,-488 537.55,-478.37 539.98,-465.53 521,-455 517.79,-453.22 514.46,-451.55 511.04,-449.98"/>
<polygon fill="black" stroke="black" points="512.4,-446.76 501.83,-446.08 509.67,-453.21 512.4,-446.76"/>
</g>
<!-- module.alb.aws_lb_listener.http&#45;&gt;module.alb.aws_lb.demo -->
<g id="edge6" class="edge">
<title>module.alb.aws_lb_listener.http&#45;&gt;module.alb.aws_lb.demo</title>
<path fill="none" stroke="black" d="M1411.35,-559.77C1380.8,-563.31 1345.96,-567.34 1316.85,-570.72"/>
<polygon fill="black" stroke="black" points="1316.33,-567.25 1306.8,-571.88 1317.14,-574.21 1316.33,-567.25"/>
</g>
<!-- module.alb.aws_lb_target_group.demo -->
<g id="node4" class="node">
<title>module.alb.aws_lb_target_group.demo</title>
<polygon fill="none" stroke="black" points="1354,-542 1152,-542 1152,-506 1354,-506 1354,-542"/>
<text text-anchor="middle" x="1253" y="-520.3" font-family="sans-serif" font-size="14.00">aws_lb_target_group.demo</text>
</g>
<!-- module.alb.aws_lb_listener.http&#45;&gt;module.alb.aws_lb_target_group.demo -->
<g id="edge7" class="edge">
<title>module.alb.aws_lb_listener.http&#45;&gt;module.alb.aws_lb_target_group.demo</title>
<path fill="none" stroke="black" d="M1411.35,-542.23C1396.42,-540.5 1380.46,-538.65 1364.64,-536.82"/>
<polygon fill="black" stroke="black" points="1364.62,-533.3 1354.29,-535.62 1363.82,-540.25 1364.62,-533.3"/>
</g>
<!-- module.alb.aws_lb_target_group.demo&#45;&gt;module.network_base.data.aws_route53_zone.lab -->
<g id="edge8" class="edge">
<title>module.alb.aws_lb_target_group.demo&#45;&gt;module.network_base.data.aws_route53_zone.lab</title>
<path fill="none" stroke="black" d="M1159.08,-505.88C1153.57,-502.54 1148.46,-498.62 1144,-494 1117.64,-466.71 1151.37,-437.28 1124,-411 1116.71,-404 1108.15,-398.57 1098.93,-394.38"/>
<polygon fill="black" stroke="black" points="1100.1,-391.08 1089.52,-390.59 1097.49,-397.57 1100.1,-391.08"/>
</g>
<!-- module.alb.aws_lb_target_group.demo&#45;&gt;module.network_base.aws_route_table_association.private -->
<g id="edge9" class="edge">
<title>module.alb.aws_lb_target_group.demo&#45;&gt;module.network_base.aws_route_table_association.private</title>
<path fill="none" stroke="black" d="M1151.69,-510.92C1071.87,-500.04 957.46,-483.41 858,-465 831.51,-460.1 802.84,-454.04 776.82,-448.26"/>
<polygon fill="black" stroke="black" points="777.51,-444.83 766.99,-446.06 775.98,-451.66 777.51,-444.83"/>
</g>
<!-- module.alb.aws_lb_target_group.demo&#45;&gt;module.network_base.aws_route_table_association.public -->
<g id="edge10" class="edge">
<title>module.alb.aws_lb_target_group.demo&#45;&gt;module.network_base.aws_route_table_association.public</title>
<path fill="none" stroke="black" d="M1167.27,-505.91C1159.1,-502.58 1151.19,-498.65 1144,-494 1132.34,-486.47 1135.81,-477.3 1124,-470 1117.83,-466.19 1111.24,-462.83 1104.43,-459.87"/>
<polygon fill="black" stroke="black" points="1105.58,-456.56 1095,-456.08 1102.97,-463.06 1105.58,-456.56"/>
</g>
<!-- module.alb.aws_lb_target_group.demo&#45;&gt;module.network_base.aws_security_group.alb -->
<g id="edge11" class="edge">
<title>module.alb.aws_lb_target_group.demo&#45;&gt;module.network_base.aws_security_group.alb</title>
<path fill="none" stroke="black" d="M1151.82,-519.91C1072.07,-516.1 957.7,-509.43 858,-499 723.53,-484.93 690.19,-478.24 557,-455 544.82,-452.88 532.05,-450.49 519.43,-448.03"/>
<polygon fill="black" stroke="black" points="519.85,-444.55 509.37,-446.05 518.5,-451.42 519.85,-444.55"/>
</g>
<!-- module.autoscaler.helm_release.this -->
<g id="node5" class="node">
<title>module.autoscaler.helm_release.this</title>
<polygon fill="none" stroke="black" points="2802,-201 2665,-201 2665,-165 2802,-165 2802,-201"/>
<text text-anchor="middle" x="2733.5" y="-179.3" font-family="sans-serif" font-size="14.00">helm_release.this</text>
</g>
<!-- module.irsa.aws_iam_role.eks_cluster_autoscaler -->
<g id="node17" class="node">
<title>module.irsa.aws_iam_role.eks_cluster_autoscaler</title>
<polygon fill="none" stroke="black" points="2552.5,-174 2283.5,-174 2283.5,-138 2552.5,-138 2552.5,-174"/>
<text text-anchor="middle" x="2418" y="-152.3" font-family="sans-serif" font-size="14.00">aws_iam_role.eks_cluster_autoscaler</text>
</g>
<!-- module.autoscaler.helm_release.this&#45;&gt;module.irsa.aws_iam_role.eks_cluster_autoscaler -->
<g id="edge12" class="edge">
<title>module.autoscaler.helm_release.this&#45;&gt;module.irsa.aws_iam_role.eks_cluster_autoscaler</title>
<path fill="none" stroke="black" d="M2664.86,-177.17C2634.83,-174.59 2598.27,-171.44 2562.63,-168.37"/>
<polygon fill="black" stroke="black" points="2562.87,-164.88 2552.6,-167.51 2562.26,-171.85 2562.87,-164.88"/>
</g>
<!-- module.irsa.aws_iam_role_policy_attachment.cluster_autoscaler_attach -->
<g id="node18" class="node">
<title>module.irsa.aws_iam_role_policy_attachment.cluster_autoscaler_attach</title>
<polygon fill="none" stroke="black" points="2629,-228 2207,-228 2207,-192 2629,-192 2629,-228"/>
<text text-anchor="middle" x="2418" y="-206.3" font-family="sans-serif" font-size="14.00">aws_iam_role_policy_attachment.cluster_autoscaler_attach</text>
</g>
<!-- module.autoscaler.helm_release.this&#45;&gt;module.irsa.aws_iam_role_policy_attachment.cluster_autoscaler_attach -->
<g id="edge13" class="edge">
<title>module.autoscaler.helm_release.this&#45;&gt;module.irsa.aws_iam_role_policy_attachment.cluster_autoscaler_attach</title>
<path fill="none" stroke="black" d="M2664.86,-188.83C2656.47,-189.55 2647.56,-190.32 2638.31,-191.11"/>
<polygon fill="black" stroke="black" points="2637.8,-187.64 2628.14,-191.99 2638.41,-194.62 2637.8,-187.64"/>
</g>
<!-- module.eks.data.tls_certificate.cluster -->
<g id="node6" class="node">
<title>module.eks.data.tls_certificate.cluster</title>
<polygon fill="none" stroke="black" points="1586,-216 1390,-216 1390,-180 1586,-180 1586,-216"/>
<text text-anchor="middle" x="1488" y="-194.3" font-family="sans-serif" font-size="14.00">data.tls_certificate.cluster</text>
</g>
<!-- module.eks.aws_eks_cluster.this -->
<g id="node7" class="node">
<title>module.eks.aws_eks_cluster.this</title>
<polygon fill="none" stroke="black" points="1331.5,-353 1174.5,-353 1174.5,-317 1331.5,-317 1331.5,-353"/>
<text text-anchor="middle" x="1253" y="-331.3" font-family="sans-serif" font-size="14.00">aws_eks_cluster.this</text>
</g>
<!-- module.eks.data.tls_certificate.cluster&#45;&gt;module.eks.aws_eks_cluster.this -->
<g id="edge14" class="edge">
<title>module.eks.data.tls_certificate.cluster&#45;&gt;module.eks.aws_eks_cluster.this</title>
<path fill="none" stroke="black" d="M1456.06,-216.19C1414.16,-240.83 1339.37,-284.8 1293.47,-311.79"/>
<polygon fill="black" stroke="black" points="1291.54,-308.86 1284.7,-316.95 1295.09,-314.9 1291.54,-308.86"/>
</g>
<!-- module.eks.aws_eks_cluster.this&#45;&gt;module.network_base.data.aws_route53_zone.lab -->
<g id="edge15" class="edge">
<title>module.eks.aws_eks_cluster.this&#45;&gt;module.network_base.data.aws_route53_zone.lab</title>
<path fill="none" stroke="black" d="M1174.22,-349.44C1149.54,-354.02 1121.8,-359.17 1095.41,-364.06"/>
<polygon fill="black" stroke="black" points="1094.57,-360.66 1085.38,-365.93 1095.85,-367.54 1094.57,-360.66"/>
</g>
<!-- module.eks.aws_eks_cluster.this&#45;&gt;module.network_base.aws_route_table_association.private -->
<g id="edge16" class="edge">
<title>module.eks.aws_eks_cluster.this&#45;&gt;module.network_base.aws_route_table_association.private</title>
<path fill="none" stroke="black" d="M1174.34,-321.7C1091.27,-311.35 958,-306.15 858,-357 835.48,-368.45 843.62,-387.93 822,-401 819.3,-402.64 816.51,-404.17 813.65,-405.62"/>
<polygon fill="black" stroke="black" points="811.94,-402.56 804.34,-409.93 814.88,-408.91 811.94,-402.56"/>
</g>
<!-- module.eks.aws_eks_cluster.this&#45;&gt;module.network_base.aws_route_table_association.public -->
<g id="edge17" class="edge">
<title>module.eks.aws_eks_cluster.this&#45;&gt;module.network_base.aws_route_table_association.public</title>
<path fill="none" stroke="black" d="M1227.32,-353.13C1202.46,-370.54 1162.37,-396.3 1124,-411 1118.25,-413.2 1112.28,-415.24 1106.21,-417.11"/>
<polygon fill="black" stroke="black" points="1105.21,-413.76 1096.6,-419.93 1107.18,-420.48 1105.21,-413.76"/>
</g>
<!-- module.eks.aws_eks_cluster.this&#45;&gt;module.network_base.aws_security_group.alb -->
<g id="edge18" class="edge">
<title>module.eks.aws_eks_cluster.this&#45;&gt;module.network_base.aws_security_group.alb</title>
<path fill="none" stroke="black" d="M1190.64,-316.95C1062.21,-282.99 760.17,-223.55 557,-347 532.35,-361.98 544.36,-384.07 521,-401 519.1,-402.38 517.14,-403.68 515.12,-404.92"/>
<polygon fill="black" stroke="black" points="513.04,-402.07 505.95,-409.94 516.4,-408.21 513.04,-402.07"/>
</g>
<!-- module.eks.aws_eks_node_group.ng -->
<g id="node8" class="node">
<title>module.eks.aws_eks_node_group.ng</title>
<polygon fill="none" stroke="black" points="2171,-270 1986,-270 1986,-234 2171,-234 2171,-270"/>
<text text-anchor="middle" x="2078.5" y="-248.3" font-family="sans-serif" font-size="14.00">aws_eks_node_group.ng</text>
</g>
<!-- module.eks.aws_launch_template.eks_node -->
<g id="node10" class="node">
<title>module.eks.aws_launch_template.eks_node</title>
<polygon fill="none" stroke="black" points="1903.5,-297 1668.5,-297 1668.5,-261 1903.5,-261 1903.5,-297"/>
<text text-anchor="middle" x="1786" y="-275.3" font-family="sans-serif" font-size="14.00">aws_launch_template.eks_node</text>
</g>
<!-- module.eks.aws_eks_node_group.ng&#45;&gt;module.eks.aws_launch_template.eks_node -->
<g id="edge19" class="edge">
<title>module.eks.aws_eks_node_group.ng&#45;&gt;module.eks.aws_launch_template.eks_node</title>
<path fill="none" stroke="black" d="M1985.98,-260.51C1963.03,-262.64 1938,-264.97 1913.68,-267.23"/>
<polygon fill="black" stroke="black" points="1913.3,-263.75 1903.67,-268.16 1913.95,-270.72 1913.3,-263.75"/>
</g>
<!-- module.eks.aws_security_group_rule.cluster_to_node -->
<g id="node12" class="node">
<title>module.eks.aws_security_group_rule.cluster_to_node</title>
<polygon fill="none" stroke="black" points="1936,-351 1636,-351 1636,-315 1936,-315 1936,-351"/>
<text text-anchor="middle" x="1786" y="-329.3" font-family="sans-serif" font-size="14.00">aws_security_group_rule.cluster_to_node</text>
</g>
<!-- module.eks.aws_eks_node_group.ng&#45;&gt;module.eks.aws_security_group_rule.cluster_to_node -->
<g id="edge20" class="edge">
<title>module.eks.aws_eks_node_group.ng&#45;&gt;module.eks.aws_security_group_rule.cluster_to_node</title>
<path fill="none" stroke="black" d="M2041.24,-270.08C2016.17,-281.89 1981.74,-296.79 1950,-306 1941.59,-308.44 1932.88,-310.68 1924.04,-312.74"/>
<polygon fill="black" stroke="black" points="1923.02,-309.38 1914.02,-314.98 1924.55,-316.21 1923.02,-309.38"/>
</g>
<!-- module.eks.aws_security_group_rule.node_nodeport -->
<g id="node13" class="node">
<title>module.eks.aws_security_group_rule.node_nodeport</title>
<polygon fill="none" stroke="black" points="1934,-405 1638,-405 1638,-369 1934,-369 1934,-405"/>
<text text-anchor="middle" x="1786" y="-383.3" font-family="sans-serif" font-size="14.00">aws_security_group_rule.node_nodeport</text>
</g>
<!-- module.eks.aws_eks_node_group.ng&#45;&gt;module.eks.aws_security_group_rule.node_nodeport -->
<g id="edge21" class="edge">
<title>module.eks.aws_eks_node_group.ng&#45;&gt;module.eks.aws_security_group_rule.node_nodeport</title>
<path fill="none" stroke="black" d="M2061.88,-270.35C2039.71,-295.06 1996.6,-338.43 1950,-360 1945.67,-362 1941.22,-363.86 1936.68,-365.58"/>
<polygon fill="black" stroke="black" points="1935.49,-362.29 1927.23,-368.93 1937.83,-368.89 1935.49,-362.29"/>
</g>
<!-- module.eks.aws_security_group_rule.node_self_all -->
<g id="node14" class="node">
<title>module.eks.aws_security_group_rule.node_self_all</title>
<polygon fill="none" stroke="black" points="1926,-459 1646,-459 1646,-423 1926,-423 1926,-459"/>
<text text-anchor="middle" x="1786" y="-437.3" font-family="sans-serif" font-size="14.00">aws_security_group_rule.node_self_all</text>
</g>
<!-- module.eks.aws_eks_node_group.ng&#45;&gt;module.eks.aws_security_group_rule.node_self_all -->
<g id="edge22" class="edge">
<title>module.eks.aws_eks_node_group.ng&#45;&gt;module.eks.aws_security_group_rule.node_self_all</title>
<path fill="none" stroke="black" d="M2068.94,-270.22C2051.73,-304.62 2009.46,-378.84 1950,-414 1945.29,-416.78 1940.38,-419.3 1935.33,-421.58"/>
<polygon fill="black" stroke="black" points="1933.97,-418.35 1926.08,-425.43 1936.66,-424.82 1933.97,-418.35"/>
</g>
<!-- module.eks.aws_security_group_rule.node_ssh -->
<g id="node15" class="node">
<title>module.eks.aws_security_group_rule.node_ssh</title>
<polygon fill="none" stroke="black" points="1914.5,-189 1657.5,-189 1657.5,-153 1914.5,-153 1914.5,-189"/>
<text text-anchor="middle" x="1786" y="-167.3" font-family="sans-serif" font-size="14.00">aws_security_group_rule.node_ssh</text>
</g>
<!-- module.eks.aws_eks_node_group.ng&#45;&gt;module.eks.aws_security_group_rule.node_ssh -->
<g id="edge23" class="edge">
<title>module.eks.aws_eks_node_group.ng&#45;&gt;module.eks.aws_security_group_rule.node_ssh</title>
<path fill="none" stroke="black" d="M2041.24,-233.92C2016.17,-222.11 1981.74,-207.21 1950,-198 1941.59,-195.56 1932.88,-193.32 1924.04,-191.26"/>
<polygon fill="black" stroke="black" points="1924.55,-187.79 1914.02,-189.02 1923.02,-194.62 1924.55,-187.79"/>
</g>
<!-- module.eks.aws_security_group_rule.node_to_cluster_api -->
<g id="node16" class="node">
<title>module.eks.aws_security_group_rule.node_to_cluster_api</title>
<polygon fill="none" stroke="black" points="1950,-243 1622,-243 1622,-207 1950,-207 1950,-243"/>
<text text-anchor="middle" x="1786" y="-221.3" font-family="sans-serif" font-size="14.00">aws_security_group_rule.node_to_cluster_api</text>
</g>
<!-- module.eks.aws_eks_node_group.ng&#45;&gt;module.eks.aws_security_group_rule.node_to_cluster_api -->
<g id="edge24" class="edge">
<title>module.eks.aws_eks_node_group.ng&#45;&gt;module.eks.aws_security_group_rule.node_to_cluster_api</title>
<path fill="none" stroke="black" d="M1985.98,-243.49C1977.58,-242.71 1968.91,-241.91 1960.09,-241.09"/>
<polygon fill="black" stroke="black" points="1960.36,-237.6 1950.08,-240.16 1959.71,-244.57 1960.36,-237.6"/>
</g>
<!-- module.eks.aws_iam_openid_connect_provider.oidc -->
<g id="node9" class="node">
<title>module.eks.aws_iam_openid_connect_provider.oidc</title>
<polygon fill="none" stroke="black" points="1929.5,-135 1642.5,-135 1642.5,-99 1929.5,-99 1929.5,-135"/>
<text text-anchor="middle" x="1786" y="-113.3" font-family="sans-serif" font-size="14.00">aws_iam_openid_connect_provider.oidc</text>
</g>
<!-- module.eks.aws_iam_openid_connect_provider.oidc&#45;&gt;module.eks.data.tls_certificate.cluster -->
<g id="edge25" class="edge">
<title>module.eks.aws_iam_openid_connect_provider.oidc&#45;&gt;module.eks.data.tls_certificate.cluster</title>
<path fill="none" stroke="black" d="M1658.91,-135.02C1646.35,-137.67 1633.87,-140.65 1622,-144 1592.76,-152.25 1561.2,-164.89 1536.17,-175.87"/>
<polygon fill="black" stroke="black" points="1534.63,-172.72 1526.91,-179.98 1537.47,-179.12 1534.63,-172.72"/>
</g>
<!-- module.eks.aws_security_group.node -->
<g id="node11" class="node">
<title>module.eks.aws_security_group.node</title>
<polygon fill="none" stroke="black" points="1584,-351 1392,-351 1392,-315 1584,-315 1584,-351"/>
<text text-anchor="middle" x="1488" y="-329.3" font-family="sans-serif" font-size="14.00">aws_security_group.node</text>
</g>
<!-- module.eks.aws_launch_template.eks_node&#45;&gt;module.eks.aws_security_group.node -->
<g id="edge26" class="edge">
<title>module.eks.aws_launch_template.eks_node&#45;&gt;module.eks.aws_security_group.node</title>
<path fill="none" stroke="black" d="M1672.67,-297.06C1655.68,-299.95 1638.36,-302.99 1622,-306 1610.12,-308.19 1597.65,-310.59 1585.33,-313.02"/>
<polygon fill="black" stroke="black" points="1584.61,-309.59 1575.48,-314.97 1585.97,-316.46 1584.61,-309.59"/>
</g>
<!-- module.eks.aws_security_group.node&#45;&gt;module.eks.aws_eks_cluster.this -->
<g id="edge27" class="edge">
<title>module.eks.aws_security_group.node&#45;&gt;module.eks.aws_eks_cluster.this</title>
<path fill="none" stroke="black" d="M1391.89,-333.82C1375.33,-333.96 1358.16,-334.11 1341.8,-334.25"/>
<polygon fill="black" stroke="black" points="1341.7,-330.75 1331.73,-334.33 1341.76,-337.75 1341.7,-330.75"/>
</g>
<!-- module.eks.aws_security_group_rule.cluster_to_node&#45;&gt;module.eks.aws_security_group.node -->
<g id="edge28" class="edge">
<title>module.eks.aws_security_group_rule.cluster_to_node&#45;&gt;module.eks.aws_security_group.node</title>
<path fill="none" stroke="black" d="M1635.7,-333C1621.73,-333 1607.78,-333 1594.34,-333"/>
<polygon fill="black" stroke="black" points="1594.17,-329.5 1584.17,-333 1594.17,-336.5 1594.17,-329.5"/>
</g>
<!-- module.eks.aws_security_group_rule.node_nodeport&#45;&gt;module.eks.aws_security_group.node -->
<g id="edge29" class="edge">
<title>module.eks.aws_security_group_rule.node_nodeport&#45;&gt;module.eks.aws_security_group.node</title>
<path fill="none" stroke="black" d="M1672.67,-368.94C1655.68,-366.05 1638.36,-363.01 1622,-360 1610.12,-357.81 1597.65,-355.41 1585.33,-352.98"/>
<polygon fill="black" stroke="black" points="1585.97,-349.54 1575.48,-351.03 1584.61,-356.41 1585.97,-349.54"/>
</g>
<!-- module.eks.aws_security_group_rule.node_self_all&#45;&gt;module.eks.aws_security_group.node -->
<g id="edge30" class="edge">
<title>module.eks.aws_security_group_rule.node_self_all&#45;&gt;module.eks.aws_security_group.node</title>
<path fill="none" stroke="black" d="M1650.49,-422.96C1640.73,-420.37 1631.14,-417.4 1622,-414 1584.88,-400.22 1546.71,-375.7 1520.83,-357.23"/>
<polygon fill="black" stroke="black" points="1522.7,-354.26 1512.55,-351.23 1518.59,-359.93 1522.7,-354.26"/>
</g>
<!-- module.eks.aws_security_group_rule.node_ssh&#45;&gt;module.eks.aws_security_group.node -->
<g id="edge31" class="edge">
<title>module.eks.aws_security_group_rule.node_ssh&#45;&gt;module.eks.aws_security_group.node</title>
<path fill="none" stroke="black" d="M1657.42,-184.05C1645.09,-187.68 1633.08,-192.25 1622,-198 1595.98,-211.5 1541.73,-271.63 1511.17,-306.92"/>
<polygon fill="black" stroke="black" points="1508.18,-305.03 1504.3,-314.89 1513.48,-309.6 1508.18,-305.03"/>
</g>
<!-- module.eks.aws_security_group_rule.node_to_cluster_api&#45;&gt;module.eks.aws_security_group.node -->
<g id="edge32" class="edge">
<title>module.eks.aws_security_group_rule.node_to_cluster_api&#45;&gt;module.eks.aws_security_group.node</title>
<path fill="none" stroke="black" d="M1650.49,-243.04C1640.73,-245.63 1631.14,-248.6 1622,-252 1584.88,-265.78 1546.71,-290.3 1520.83,-308.77"/>
<polygon fill="black" stroke="black" points="1518.59,-306.07 1512.55,-314.77 1522.7,-311.74 1518.59,-306.07"/>
</g>
<!-- module.irsa.aws_iam_role.eks_cluster_autoscaler&#45;&gt;module.eks.aws_eks_node_group.ng -->
<g id="edge33" class="edge">
<title>module.irsa.aws_iam_role.eks_cluster_autoscaler&#45;&gt;module.eks.aws_eks_node_group.ng</title>
<path fill="none" stroke="black" d="M2283.4,-163.98C2255.06,-168.03 2225.67,-174.06 2199,-183 2167.78,-193.46 2135.64,-212.58 2112.56,-228.04"/>
<polygon fill="black" stroke="black" points="2110.47,-225.24 2104.18,-233.77 2114.42,-231.02 2110.47,-225.24"/>
</g>
<!-- module.irsa.aws_iam_role.eks_cluster_autoscaler&#45;&gt;module.eks.aws_iam_openid_connect_provider.oidc -->
<g id="edge34" class="edge">
<title>module.irsa.aws_iam_role.eks_cluster_autoscaler&#45;&gt;module.eks.aws_iam_openid_connect_provider.oidc</title>
<path fill="none" stroke="black" d="M2283.39,-147.73C2182.8,-141.5 2044.76,-132.96 1939.78,-126.46"/>
<polygon fill="black" stroke="black" points="1939.92,-122.96 1929.72,-125.84 1939.49,-129.95 1939.92,-122.96"/>
</g>
<!-- module.irsa.aws_iam_role_policy_attachment.cluster_autoscaler_attach&#45;&gt;module.eks.aws_eks_node_group.ng -->
<g id="edge35" class="edge">
<title>module.irsa.aws_iam_role_policy_attachment.cluster_autoscaler_attach&#45;&gt;module.eks.aws_eks_node_group.ng</title>
<path fill="none" stroke="black" d="M2271.91,-228.06C2241.39,-231.85 2209.81,-235.78 2181.28,-239.33"/>
<polygon fill="black" stroke="black" points="2180.81,-235.87 2171.32,-240.57 2181.68,-242.81 2180.81,-235.87"/>
</g>
<!-- module.irsa.aws_iam_role_policy_attachment.cluster_autoscaler_attach&#45;&gt;module.eks.aws_iam_openid_connect_provider.oidc -->
<g id="edge36" class="edge">
<title>module.irsa.aws_iam_role_policy_attachment.cluster_autoscaler_attach&#45;&gt;module.eks.aws_iam_openid_connect_provider.oidc</title>
<path fill="none" stroke="black" d="M2266.52,-191.97C2243.88,-189.08 2220.81,-186.04 2199,-183 2088.06,-167.54 2060.5,-162.36 1950,-144 1935.86,-141.65 1921.03,-139.19 1906.32,-136.75"/>
<polygon fill="black" stroke="black" points="1906.6,-133.25 1896.16,-135.07 1905.46,-140.16 1906.6,-133.25"/>
</g>
<!-- module.nat.aws_eip.nat -->
<g id="node19" class="node">
<title>module.nat.aws_eip.nat</title>
<polygon fill="none" stroke="black" points="1302,-52 1204,-52 1204,-16 1302,-16 1302,-52"/>
<text text-anchor="middle" x="1253" y="-30.3" font-family="sans-serif" font-size="14.00">aws_eip.nat</text>
</g>
<!-- module.nat.aws_eip.nat&#45;&gt;module.network_base.data.aws_route53_zone.lab -->
<g id="edge37" class="edge">
<title>module.nat.aws_eip.nat&#45;&gt;module.network_base.data.aws_route53_zone.lab</title>
<path fill="none" stroke="black" d="M1203.74,-46.41C1182.13,-54.44 1158.34,-67.22 1144,-87 1106.59,-138.6 1150.57,-171.07 1124,-229 1099.44,-282.55 1050.26,-331.3 1018.26,-359.29"/>
<polygon fill="black" stroke="black" points="1015.82,-356.78 1010.52,-365.95 1020.38,-362.08 1015.82,-356.78"/>
</g>
<!-- module.nat.aws_eip.nat&#45;&gt;module.network_base.aws_route_table_association.private -->
<g id="edge38" class="edge">
<title>module.nat.aws_eip.nat&#45;&gt;module.network_base.aws_route_table_association.private</title>
<path fill="none" stroke="black" d="M1210.16,-52.08C1189.68,-61.54 1164.98,-73.87 1144,-87 1007.37,-172.51 954.6,-180.97 858,-310 831.93,-344.82 855.31,-373.04 822,-401 820.65,-402.13 819.27,-403.22 817.85,-404.27"/>
<polygon fill="black" stroke="black" points="815.84,-401.4 809.41,-409.83 819.69,-407.25 815.84,-401.4"/>
</g>
<!-- module.nat.aws_eip.nat&#45;&gt;module.network_base.aws_route_table_association.public -->
<g id="edge39" class="edge">
<title>module.nat.aws_eip.nat&#45;&gt;module.network_base.aws_route_table_association.public</title>
<path fill="none" stroke="black" d="M1203.88,-45.62C1181.89,-53.52 1157.73,-66.41 1144,-87 1103.98,-147.02 1171.47,-356.68 1124,-411 1123.38,-411.71 1122.74,-412.41 1122.09,-413.09"/>
<polygon fill="black" stroke="black" points="1119.72,-410.52 1114.68,-419.84 1124.43,-415.69 1119.72,-410.52"/>
</g>
<!-- module.nat.aws_eip.nat&#45;&gt;module.network_base.aws_security_group.alb -->
<g id="edge40" class="edge">
<title>module.nat.aws_eip.nat&#45;&gt;module.network_base.aws_security_group.alb</title>
<path fill="none" stroke="black" d="M1203.94,-36.29C1128.34,-41.09 977.88,-55.58 858,-98 712.75,-149.4 651.46,-148.27 557,-270 519.98,-317.7 563.63,-358.23 521,-401 520.06,-401.94 519.1,-402.85 518.1,-403.73"/>
<polygon fill="black" stroke="black" points="515.85,-401.04 509.99,-409.86 520.08,-406.62 515.85,-401.04"/>
</g>
<!-- module.nat.aws_nat_gateway.this -->
<g id="node20" class="node">
<title>module.nat.aws_nat_gateway.this</title>
<polygon fill="none" stroke="black" points="1571,-52 1405,-52 1405,-16 1571,-16 1571,-52"/>
<text text-anchor="middle" x="1488" y="-30.3" font-family="sans-serif" font-size="14.00">aws_nat_gateway.this</text>
</g>
<!-- module.nat.aws_nat_gateway.this&#45;&gt;module.nat.aws_eip.nat -->
<g id="edge41" class="edge">
<title>module.nat.aws_nat_gateway.this&#45;&gt;module.nat.aws_eip.nat</title>
<path fill="none" stroke="black" d="M1404.85,-34C1374.28,-34 1340.24,-34 1312.25,-34"/>
<polygon fill="black" stroke="black" points="1312.22,-30.5 1302.22,-34 1312.22,-37.5 1312.22,-30.5"/>
</g>
<!-- module.nat.aws_route.private_default -->
<g id="node21" class="node">
<title>module.nat.aws_route.private_default</title>
<polygon fill="none" stroke="black" points="1883.5,-52 1688.5,-52 1688.5,-16 1883.5,-16 1883.5,-52"/>
<text text-anchor="middle" x="1786" y="-30.3" font-family="sans-serif" font-size="14.00">aws_route.private_default</text>
</g>
<!-- module.nat.aws_route.private_default&#45;&gt;module.nat.aws_nat_gateway.this -->
<g id="edge42" class="edge">
<title>module.nat.aws_route.private_default&#45;&gt;module.nat.aws_nat_gateway.this</title>
<path fill="none" stroke="black" d="M1688.49,-34C1654.24,-34 1615.79,-34 1581.85,-34"/>
<polygon fill="black" stroke="black" points="1581.48,-30.5 1571.48,-34 1581.48,-37.5 1581.48,-30.5"/>
</g>
<!-- module.network_base.data.aws_availability_zones.available -->
<g id="node22" class="node">
<title>module.network_base.data.aws_availability_zones.available</title>
<polygon fill="none" stroke="black" points="289,-527 16,-527 16,-491 289,-491 289,-527"/>
<text text-anchor="middle" x="152.5" y="-505.3" font-family="sans-serif" font-size="14.00">data.aws_availability_zones.available</text>
</g>
<!-- module.network_base.aws_internet_gateway.igw -->
<g id="node24" class="node">
<title>module.network_base.aws_internet_gateway.igw</title>
<polygon fill="none" stroke="black" points="521,-338 325,-338 325,-302 521,-302 521,-338"/>
<text text-anchor="middle" x="423" y="-316.3" font-family="sans-serif" font-size="14.00">aws_internet_gateway.igw</text>
</g>
<!-- module.network_base.aws_vpc.this -->
<g id="node32" class="node">
<title>module.network_base.aws_vpc.this</title>
<polygon fill="none" stroke="black" points="205,-446 100,-446 100,-410 205,-410 205,-446"/>
<text text-anchor="middle" x="152.5" y="-424.3" font-family="sans-serif" font-size="14.00">aws_vpc.this</text>
</g>
<!-- module.network_base.aws_internet_gateway.igw&#45;&gt;module.network_base.aws_vpc.this -->
<g id="edge43" class="edge">
<title>module.network_base.aws_internet_gateway.igw&#45;&gt;module.network_base.aws_vpc.this</title>
<path fill="none" stroke="black" d="M351.61,-338.07C342.58,-340.83 333.52,-343.83 325,-347 280.01,-363.75 230.64,-387.69 196.47,-405.2"/>
<polygon fill="black" stroke="black" points="194.53,-402.26 187.25,-409.96 197.74,-408.48 194.53,-402.26"/>
</g>
<!-- module.network_base.aws_route_table.private -->
<g id="node25" class="node">
<title>module.network_base.aws_route_table.private</title>
<polygon fill="none" stroke="black" points="513.5,-392 332.5,-392 332.5,-356 513.5,-356 513.5,-392"/>
<text text-anchor="middle" x="423" y="-370.3" font-family="sans-serif" font-size="14.00">aws_route_table.private</text>
</g>
<!-- module.network_base.aws_route_table.private&#45;&gt;module.network_base.aws_vpc.this -->
<g id="edge44" class="edge">
<title>module.network_base.aws_route_table.private&#45;&gt;module.network_base.aws_vpc.this</title>
<path fill="none" stroke="black" d="M332.22,-392.06C293.79,-399.79 249.87,-408.62 215.19,-415.59"/>
<polygon fill="black" stroke="black" points="214.31,-412.2 205.2,-417.6 215.69,-419.06 214.31,-412.2"/>
</g>
<!-- module.network_base.aws_route_table.public -->
<g id="node26" class="node">
<title>module.network_base.aws_route_table.public</title>
<polygon fill="none" stroke="black" points="776.5,-392 602.5,-392 602.5,-356 776.5,-356 776.5,-392"/>
<text text-anchor="middle" x="689.5" y="-370.3" font-family="sans-serif" font-size="14.00">aws_route_table.public</text>
</g>
<!-- module.network_base.aws_route_table.public&#45;&gt;module.network_base.aws_internet_gateway.igw -->
<g id="edge45" class="edge">
<title>module.network_base.aws_route_table.public&#45;&gt;module.network_base.aws_internet_gateway.igw</title>
<path fill="none" stroke="black" d="M602.26,-356.39C576.73,-351.18 548.58,-345.43 522.34,-340.08"/>
<polygon fill="black" stroke="black" points="522.89,-336.62 512.39,-338.05 521.49,-343.48 522.89,-336.62"/>
</g>
<!-- module.network_base.aws_route_table_association.private&#45;&gt;module.network_base.aws_route_table.private -->
<g id="edge46" class="edge">
<title>module.network_base.aws_route_table_association.private&#45;&gt;module.network_base.aws_route_table.private</title>
<path fill="none" stroke="black" d="M600.06,-409.94C575.13,-404.86 547.87,-399.29 522.4,-394.09"/>
<polygon fill="black" stroke="black" points="522.86,-390.61 512.36,-392.04 521.46,-397.47 522.86,-390.61"/>
</g>
<!-- module.network_base.aws_subnet.private -->
<g id="node30" class="node">
<title>module.network_base.aws_subnet.private</title>
<polygon fill="none" stroke="black" points="499,-500 347,-500 347,-464 499,-464 499,-500"/>
<text text-anchor="middle" x="423" y="-478.3" font-family="sans-serif" font-size="14.00">aws_subnet.private</text>
</g>
<!-- module.network_base.aws_route_table_association.private&#45;&gt;module.network_base.aws_subnet.private -->
<g id="edge47" class="edge">
<title>module.network_base.aws_route_table_association.private&#45;&gt;module.network_base.aws_subnet.private</title>
<path fill="none" stroke="black" d="M600.06,-446.06C570.77,-452.04 538.25,-458.67 509.22,-464.6"/>
<polygon fill="black" stroke="black" points="508.2,-461.24 499.1,-466.67 509.6,-468.1 508.2,-461.24"/>
</g>
<!-- module.network_base.aws_route_table_association.public&#45;&gt;module.network_base.aws_route_table.public -->
<g id="edge48" class="edge">
<title>module.network_base.aws_route_table_association.public&#45;&gt;module.network_base.aws_route_table.public</title>
<path fill="none" stroke="black" d="M897.01,-419.98C883.9,-417.11 870.58,-414.07 858,-411 841.87,-407.06 838.14,-404.89 822,-401 810.58,-398.25 798.57,-395.53 786.63,-392.94"/>
<polygon fill="black" stroke="black" points="787.14,-389.47 776.63,-390.8 785.68,-396.32 787.14,-389.47"/>
</g>
<!-- module.network_base.aws_subnet.public -->
<g id="node31" class="node">
<title>module.network_base.aws_subnet.public</title>
<polygon fill="none" stroke="black" points="495.5,-554 350.5,-554 350.5,-518 495.5,-518 495.5,-554"/>
<text text-anchor="middle" x="423" y="-532.3" font-family="sans-serif" font-size="14.00">aws_subnet.public</text>
</g>
<!-- module.network_base.aws_route_table_association.public&#45;&gt;module.network_base.aws_subnet.public -->
<g id="edge49" class="edge">
<title>module.network_base.aws_route_table_association.public&#45;&gt;module.network_base.aws_subnet.public</title>
<path fill="none" stroke="black" d="M882.59,-456.03C773.94,-474.98 605.26,-504.39 505.6,-521.77"/>
<polygon fill="black" stroke="black" points="504.83,-518.35 495.58,-523.52 506.04,-525.25 504.83,-518.35"/>
</g>
<!-- module.network_base.aws_security_group.alb&#45;&gt;module.network_base.aws_vpc.this -->
<g id="edge50" class="edge">
<title>module.network_base.aws_security_group.alb&#45;&gt;module.network_base.aws_vpc.this</title>
<path fill="none" stroke="black" d="M333.34,-428C294.69,-428 250.32,-428 215.32,-428"/>
<polygon fill="black" stroke="black" points="215.25,-424.5 205.25,-428 215.25,-431.5 215.25,-424.5"/>
</g>
<!-- module.network_base.aws_subnet.private&#45;&gt;module.network_base.data.aws_availability_zones.available -->
<g id="edge51" class="edge">
<title>module.network_base.aws_subnet.private&#45;&gt;module.network_base.data.aws_availability_zones.available</title>
<path fill="none" stroke="black" d="M346.85,-489.56C331.88,-491.06 315.69,-492.69 299.27,-494.34"/>
<polygon fill="black" stroke="black" points="298.62,-490.89 289.02,-495.37 299.32,-497.85 298.62,-490.89"/>
</g>
<!-- module.network_base.aws_subnet.private&#45;&gt;module.network_base.aws_vpc.this -->
<g id="edge52" class="edge">
<title>module.network_base.aws_subnet.private&#45;&gt;module.network_base.aws_vpc.this</title>
<path fill="none" stroke="black" d="M346.85,-466.89C305.32,-458.53 254.36,-448.29 215.19,-440.41"/>
<polygon fill="black" stroke="black" points="215.73,-436.95 205.24,-438.41 214.35,-443.81 215.73,-436.95"/>
</g>
<!-- module.network_base.aws_subnet.public&#45;&gt;module.network_base.data.aws_availability_zones.available -->
<g id="edge53" class="edge">
<title>module.network_base.aws_subnet.public&#45;&gt;module.network_base.data.aws_availability_zones.available</title>
<path fill="none" stroke="black" d="M350.4,-528.8C334.56,-527.21 317.21,-525.46 299.59,-523.69"/>
<polygon fill="black" stroke="black" points="299.5,-520.16 289.2,-522.65 298.8,-527.13 299.5,-520.16"/>
</g>
<!-- module.network_base.aws_subnet.public&#45;&gt;module.network_base.aws_vpc.this -->
<g id="edge54" class="edge">
<title>module.network_base.aws_subnet.public&#45;&gt;module.network_base.aws_vpc.this</title>
<path fill="none" stroke="black" d="M350.4,-519.36C341.66,-516.38 333,-512.94 325,-509 307.06,-500.17 306.44,-491.79 289,-482 265.71,-468.93 238.61,-457.46 214.79,-448.5"/>
<polygon fill="black" stroke="black" points="215.75,-445.12 205.16,-444.94 213.32,-451.69 215.75,-445.12"/>
</g>
</g>
</svg>
